# xmcd
#
# Track frame offsets: 
#        150
#        11834
#        28067
#        39382
#        63666
#        75431
#        92007
#        101998
#        116748
#        134971
#        146534
#
# Disc length: 2186 seconds
#
# Revision: 0
# Processed by: cddbd v1.5PL3 Copyright (c) Steve Scherf et al.
# Submitted via: ExactAudioCopy v0.95a4
#
DISCID=9d08880b
DTITLE=D. Rangers - D. Rangers
DYEAR=1900
DGENRE=Bluegrass
TTITLE0=D. Range Special
TTITLE1=Nothin' to Show
TTITLE2=Take Me Back to Tulsa
TTITLE3=If Just Maybe
TTITLE4=Viscosity Breakdownv
TTITLE5=Ramblin' Man
TTITLE6=Salty Dog Blues
TTITLE7=D. Range Stomp
TTITLE8=Weary Blues From Waiting
TTITLE9=Blue Yodel #4
TTITLE10=Paddy Breakdown (live)
EXTD=
EXTT0=
EXTT1=
EXTT2=
EXTT3=
EXTT4=
EXTT5=
EXTT6=
EXTT7=
EXTT8=
EXTT9=
EXTT10=
PLAYORDER=
